24
v -1.0 -1.0 -1.0
v -1.0 1.0 -1.0
v 1.0 1.0 -1.0
v 1.0 -1.0 -1.0
v -1.0 -1.0 1.0
v 1.0 -1.0 1.0
v 1.0 1.0 1.0
v -1.0 1.0 1.0
v -1.0 -1.0 1.0
v -1.0 1.0 1.0
v -1.0 1.0 -1.0
v -1.0 -1.0 -1.0
v 1.0 -1.0 -1.0
v 1.0 1.0 -1.0
v 1.0 1.0 1.0
v 1.0 -1.0 1.0
v -1.0 -1.0 1.0
v -1.0 -1.0 -1.0
v 1.0 -1.0 -1.0
v 1.0 -1.0 1.0
v -1.0 1.0 -1.0
v -1.0 1.0 1.0
v 1.0 1.0 1.0
v 1.0 1.0 -1.0
4
vt 0.0 0.0
vt 1.0 0.0
vt 1.0 1.0
vt 0.0 1.0
6
vn 0.0 0.0 -1.0
vn 0.0 0.0 1.0
vn -1.0 0.0 0.0
vn 1.0 0.0 0.0
vn 0.0 -1.0 0.0
vn 0.0 1.0 0.0
12
f 1/1/1 2/4/1 3/3/1
f 1/1/1 3/3/1 4/2/1
f 5/1/2 6/2/2 7/3/2
f 5/1/2 7/3/2 8/4/2
f 9/1/3 10/4/3 11/3/3
f 9/1/3 11/3/3 12/2/3
f 13/1/4 14/4/4 15/3/4
f 13/1/4 15/3/4 16/2/4
f 17/1/5 18/4/5 19/3/5
f 17/1/5 19/3/5 20/2/5
f 21/1/6 22/4/6 23/3/6
f 21/1/6 23/3/6 24/2/6
